<svg xmlns="http://www.w3.org/2000/svg" viewBox="494 296 582 193"><defs><clipPath id="c"><rect x="0" width="570" y="0" height="147"/></clipPath><clipPath id="d"><rect x="0" width="97" y="0" height="102"/></clipPath></defs><g transform="matrix(1, 0, 0, 1, 494, 342)"><g clip-path="url(#c)"><g clip-path="url(#6e8e6f2998)"><g fill="#ebe2c6" fill-opacity="1"><g transform="translate(1.123355, 117.36804)"><g><path d="M 89.71875 -17 L 82.21875 -15.484375 L 82.21875 -87.953125 L 105.78125 -87.953125 L 105.78125 0 L 75.171875 0 L 24.390625 -72.359375 L 31.78125 -73.890625 L 31.78125 0 L 8.203125 0 L 8.203125 -87.953125 L 39.640625 -87.953125 Z M 89.71875 -17 "/></g></g></g><g fill="#ebe2c6" fill-opacity="1"><g transform="translate(109.132578, 117.36804)"><g><path d="M 56.53125 1.875 C 46.132812 1.875 37.003906 -0.0351562 29.140625 -3.859375 C 21.285156 -7.691406 15.1875 -13.050781 10.84375 -19.9375 C 6.507812 -26.820312 4.34375 -34.835938 4.34375 -43.984375 C 4.34375 -53.128906 6.507812 -61.140625 10.84375 -68.015625 C 15.1875 -74.898438 21.285156 -80.257812 29.140625 -84.09375 C 37.003906 -87.925781 46.132812 -89.84375 56.53125 -89.84375 C 67.007812 -89.84375 76.15625 -87.925781 83.96875 -84.09375 C 91.789062 -80.257812 97.890625 -74.898438 102.265625 -68.015625 C 106.648438 -61.140625 108.84375 -53.128906 108.84375 -43.984375 C 108.84375 -34.835938 106.648438 -26.820312 102.265625 -19.9375 C 97.890625 -13.050781 91.789062 -7.691406 83.96875 -3.859375 C 76.15625 -0.0351562 67.007812 1.875 56.53125 1.875 Z M 56.53125 -19.828125 C 62.238281 -19.828125 67.160156 -20.800781 71.296875 -22.75 C 75.441406 -24.707031 78.628906 -27.484375 80.859375 -31.078125 C 83.085938 -34.671875 84.203125 -38.972656 84.203125 -43.984375 C 84.203125 -48.984375 83.085938 -53.28125 80.859375 -56.875 C 78.628906 -60.476562 75.441406 -63.253906 71.296875 -65.203125 C 67.160156 -67.160156 62.238281 -68.140625 56.53125 -68.140625 C 50.894531 -68.140625 46.003906 -67.160156 41.859375 -65.203125 C 37.722656 -63.253906 34.519531 -60.476562 32.25 -56.875 C 29.976562 -53.28125 28.84375 -48.984375 28.84375 -43.984375 C 28.84375 -38.972656 29.976562 -34.671875 32.25 -31.078125 C 34.519531 -27.484375 37.722656 -24.707031 41.859375 -22.75 C 46.003906 -20.800781 50.894531 -19.828125 56.53125 -19.828125 Z M 56.53125 -19.828125 "/></g></g></g><g fill="#ebe2c6" fill-opacity="1"><g transform="translate(216.320876, 117.36804)"><g><path d="M 24.984375 -49.5 L 57 -49.5 C 60.90625 -49.5 63.953125 -50.394531 66.140625 -52.1875 C 68.335938 -53.988281 69.4375 -56.492188 69.4375 -59.703125 C 69.4375 -62.984375 68.335938 -65.503906 66.140625 -67.265625 C 63.953125 -69.023438 60.90625 -69.90625 57 -69.90625 L 21.578125 -69.90625 L 32.484375 -81.515625 L 32.484375 0 L 8.203125 0 L 8.203125 -87.953125 L 60.40625 -87.953125 C 67.125 -87.953125 72.984375 -86.757812 77.984375 -84.375 C 82.992188 -82 86.90625 -78.71875 89.71875 -74.53125 C 92.53125 -70.34375 93.9375 -65.398438 93.9375 -59.703125 C 93.9375 -54.148438 92.53125 -49.257812 89.71875 -45.03125 C 86.90625 -40.8125 82.992188 -37.53125 77.984375 -35.1875 C 72.984375 -32.84375 67.125 -31.671875 60.40625 -31.671875 L 24.984375 -31.671875 Z M 38.109375 -41.171875 L 65.4375 -41.171875 L 96.984375 0 L 68.84375 0 Z M 38.109375 -41.171875 "/></g></g></g><g fill="#ebe2c6" fill-opacity="1"><g transform="translate(310.022668, 117.36804)"><g><path d="M 83.390625 -52.78125 L 83.390625 -35.1875 L 19 -35.1875 L 19 -52.78125 Z M 35.53125 -43.984375 L 29.796875 -8.671875 L 19.9375 -19.703125 L 87.25 -19.703125 L 87.25 0 L 5.515625 0 L 12.203125 -43.984375 L 5.515625 -87.953125 L 86.671875 -87.953125 L 86.671875 -68.25 L 19.9375 -68.25 L 29.796875 -79.28125 Z M 35.53125 -43.984375 "/></g></g></g><g fill="#ebe2c6" fill-opacity="1"><g transform="translate(397.157102, 117.36804)"><g><path d="M 32.484375 -87.953125 L 32.484375 -10.796875 L 21.578125 -21.578125 L 87.375 -21.578125 L 87.375 0 L 8.203125 0 L 8.203125 -87.953125 Z M 32.484375 -87.953125 "/></g></g></g><g fill="#ebe2c6" fill-opacity="1"><g transform="translate(480.773316, 117.36804)"><g><path d="M 32.484375 -87.953125 L 32.484375 -10.796875 L 21.578125 -21.578125 L 87.375 -21.578125 L 87.375 0 L 8.203125 0 L 8.203125 -87.953125 Z M 32.484375 -87.953125 "/></g></g></g></g></g></g><g transform="matrix(1, 0, 0, 1, 979, 296)"><g clip-path="url(#d)"><g clip-path="url(#93c86f7571)"><g fill="#ebe2c6" fill-opacity="1"><g transform="translate(16.94955, 57.341876)"><g><path d="M 8.542969 2.996094 L 12.796875 -9.125 L 17.410156 -7.507812 C 25.101562 -4.808594 30.082031 -7.964844 32.574219 -15.066406 C 35.066406 -22.167969 33.199219 -27.71875 25.605469 -30.382812 L 14.207031 -34.382812 L 1.90625 0.667969 Z M 18.785156 -26.195312 L 23.140625 -24.667969 C 26.453125 -23.503906 27.035156 -21.035156 25.78125 -17.453125 C 24.523438 -13.871094 22.523438 -12.304688 19.210938 -13.46875 L 14.855469 -14.996094 Z M 18.785156 -26.195312 "/></g></g></g><g fill="#ebe2c6" fill-opacity="1"><g transform="translate(38.057609, 63.999931)"><g><path d="M 26.023438 7.042969 C 28.464844 3.320312 29.007812 0.679688 26.714844 -2.285156 C 30.394531 -1.070312 33.667969 -2.523438 36.519531 -6.429688 C 40.480469 -11.855469 40.210938 -16.640625 33.351562 -21.648438 L 23.53125 -28.8125 L 1.632812 1.191406 L 7.3125 5.335938 L 15.730469 -6.199219 L 19.386719 -3.53125 C 22.253906 -1.441406 22.269531 0.21875 19.761719 3.941406 L 17.292969 7.566406 C 16.289062 9.078125 15.75 10.105469 15.457031 11.28125 L 21.21875 15.488281 C 21.425781 14.316406 22.007812 13.1875 22.964844 11.722656 Z M 25.710938 -19.875 L 29.472656 -17.128906 C 32.160156 -15.167969 32.449219 -13.019531 30.113281 -9.816406 C 27.644531 -6.4375 25.488281 -6.136719 22.980469 -7.964844 L 19.09375 -10.804688 Z M 25.710938 -19.875 "/></g></g></g></g></g></svg>